<?xml version="1.0" encoding="UTF-8"?>
<svg xmlns="http://www.w3.org/2000/svg" width="1646" height="1646" viewBox="0 0 1646 1646" role="img" aria-label="Zed Editor logo">
  <defs>
    <linearGradient id="zedLogoGradient" x1="0" y1="0" x2="1" y2="1">
      <stop offset="0%" stop-color="#ffffff"/>
      <stop offset="68%" stop-color="#ffffff"/>
      <stop offset="100%" stop-color="#8e8e8e"/>
    </linearGradient>
    <radialGradient id="zedBgGradient" cx="50%" cy="35%" r="75%">
      <stop offset="0%" stop-color="#252728"/>
      <stop offset="100%" stop-color="#030404"/>
    </radialGradient>
  </defs>
  <path d="M 109.0 106.0 L 71.0 150.0 L 36.0 208.0 L 10.0 281.0 L 0.0 346.0 L 1.0 1312.0 L 13.0 1376.0 L 32.0 1428.0 L 66.0 1488.0 L 106.0 1536.0 L 150.0 1574.0 L 208.0 1609.0 L 276.0 1634.0 L 344.0 1645.0 L 1313.0 1644.0 L 1376.0 1632.0 L 1435.0 1610.0 L 1488.0 1579.0 L 1536.0 1539.0 L 1579.0 1488.0 L 1615.0 1424.0 L 1635.0 1365.0 L 1645.0 1300.0 L 1645.0 345.0 L 1633.0 272.0 L 1615.0 221.0 L 1579.0 157.0 L 1539.0 109.0 L 1488.0 66.0 L 1424.0 30.0 L 1372.0 12.0 L 1289.0 0.0 L 358.0 0.0 L 284.0 10.0 L 226.0 28.0 L 172.0 56.0 Z" fill="url(#zedBgGradient)" fill-rule="evenodd"/>
  <path d="M 411.0 403.0 L 395.0 423.0 L 395.0 426.0 L 389.0 435.0 L 389.0 440.0 L 387.0 441.0 L 387.0 448.0 L 385.0 449.0 L 385.0 1070.0 L 440.0 1070.0 L 440.0 457.0 L 442.0 456.0 L 444.0 449.0 L 451.0 442.0 L 454.0 442.0 L 459.0 438.0 L 1169.0 439.0 L 1076.0 533.0 L 587.0 533.0 L 586.0 535.0 L 575.0 535.0 L 570.0 539.0 L 565.0 539.0 L 545.0 557.0 L 545.0 560.0 L 541.0 563.0 L 541.0 568.0 L 537.0 573.0 L 537.0 584.0 L 535.0 585.0 L 535.0 932.0 L 590.0 932.0 L 590.0 591.0 L 593.0 588.0 L 1016.0 588.0 L 1017.0 592.0 L 924.0 685.0 L 719.0 685.0 L 718.0 687.0 L 713.0 687.0 L 712.0 689.0 L 705.0 691.0 L 693.0 703.0 L 693.0 706.0 L 689.0 711.0 L 689.0 716.0 L 687.0 717.0 L 687.0 794.0 L 742.0 794.0 L 743.0 740.0 L 866.0 740.0 L 867.0 742.0 L 411.0 1197.0 L 411.0 1200.0 L 407.0 1203.0 L 405.0 1220.0 L 403.0 1221.0 L 405.0 1223.0 L 405.0 1234.0 L 407.0 1235.0 L 411.0 1246.0 L 421.0 1256.0 L 424.0 1256.0 L 429.0 1260.0 L 434.0 1260.0 L 435.0 1262.0 L 1194.0 1262.0 L 1195.0 1260.0 L 1210.0 1258.0 L 1211.0 1256.0 L 1226.0 1250.0 L 1229.0 1246.0 L 1232.0 1246.0 L 1252.0 1224.0 L 1252.0 1221.0 L 1260.0 1208.0 L 1262.0 1193.0 L 1264.0 1192.0 L 1264.0 907.0 L 1257.0 907.0 L 1256.0 905.0 L 1254.0 907.0 L 1252.0 905.0 L 1250.0 907.0 L 1248.0 905.0 L 1235.0 905.0 L 1231.0 902.0 L 1223.0 905.0 L 1223.0 902.0 L 1217.0 903.0 L 1214.0 899.0 L 1211.0 901.0 L 1211.0 1182.0 L 1209.0 1183.0 L 1207.0 1194.0 L 1192.0 1207.0 L 1185.0 1207.0 L 1184.0 1209.0 L 1157.0 1209.0 L 1156.0 1207.0 L 481.0 1207.0 L 480.0 1205.0 L 573.0 1112.0 L 1072.0 1110.0 L 1073.0 1108.0 L 1078.0 1108.0 L 1079.0 1106.0 L 1086.0 1104.0 L 1102.0 1090.0 L 1102.0 1087.0 L 1106.0 1084.0 L 1106.0 1081.0 L 1110.0 1076.0 L 1110.0 1071.0 L 1112.0 1070.0 L 1112.0 875.0 L 1110.0 874.0 L 1110.0 871.0 L 1105.0 871.0 L 1105.0 874.0 L 1097.0 877.0 L 1096.0 881.0 L 1090.0 877.0 L 1077.0 879.0 L 1070.0 875.0 L 1059.0 875.0 L 1058.0 1057.0 L 631.0 1057.0 L 630.0 1055.0 L 723.0 962.0 L 926.0 962.0 L 927.0 960.0 L 934.0 960.0 L 935.0 958.0 L 942.0 956.0 L 952.0 948.0 L 952.0 945.0 L 956.0 942.0 L 956.0 939.0 L 960.0 934.0 L 960.0 927.0 L 962.0 926.0 L 962.0 889.0 L 960.0 888.0 L 960.0 861.0 L 953.0 861.0 L 950.0 857.0 L 937.0 859.0 L 936.0 857.0 L 909.0 855.0 L 906.0 907.0 L 781.0 907.0 L 780.0 905.0 L 1238.0 448.0 L 1238.0 445.0 L 1242.0 442.0 L 1244.0 429.0 L 1246.0 428.0 L 1244.0 411.0 L 1242.0 410.0 L 1238.0 399.0 L 1228.0 389.0 L 1225.0 389.0 L 1220.0 385.0 L 1215.0 385.0 L 1214.0 383.0 L 451.0 383.0 L 450.0 385.0 L 437.0 387.0 L 436.0 389.0 L 425.0 393.0 L 422.0 397.0 L 419.0 397.0 L 414.0 403.0 Z" fill="#bdbdbd" opacity="0.45" fill-rule="evenodd"/>
  <path d="M 417.0 399.0 L 397.0 421.0 L 397.0 424.0 L 395.0 425.0 L 395.0 428.0 L 393.0 429.0 L 393.0 432.0 L 389.0 437.0 L 389.0 442.0 L 387.0 443.0 L 387.0 452.0 L 385.0 453.0 L 385.0 1070.0 L 438.0 1070.0 L 438.0 463.0 L 440.0 462.0 L 440.0 455.0 L 446.0 448.0 L 447.0 444.0 L 450.0 444.0 L 457.0 438.0 L 464.0 438.0 L 465.0 436.0 L 1090.0 436.0 L 1091.0 438.0 L 1096.0 438.0 L 1097.0 436.0 L 1168.0 436.0 L 1169.0 440.0 L 1074.0 535.0 L 577.0 535.0 L 576.0 537.0 L 571.0 537.0 L 570.0 539.0 L 563.0 541.0 L 547.0 555.0 L 547.0 558.0 L 543.0 561.0 L 543.0 564.0 L 539.0 569.0 L 539.0 574.0 L 537.0 575.0 L 537.0 932.0 L 590.0 932.0 L 591.0 588.0 L 1018.0 588.0 L 1019.0 590.0 L 924.0 685.0 L 723.0 685.0 L 722.0 687.0 L 715.0 687.0 L 714.0 689.0 L 703.0 693.0 L 695.0 701.0 L 695.0 704.0 L 693.0 705.0 L 693.0 708.0 L 689.0 713.0 L 689.0 720.0 L 687.0 721.0 L 687.0 794.0 L 742.0 794.0 L 743.0 740.0 L 866.0 740.0 L 867.0 742.0 L 413.0 1195.0 L 413.0 1198.0 L 409.0 1201.0 L 407.0 1210.0 L 405.0 1211.0 L 405.0 1232.0 L 407.0 1233.0 L 407.0 1238.0 L 413.0 1245.0 L 413.0 1248.0 L 417.0 1252.0 L 420.0 1252.0 L 423.0 1256.0 L 426.0 1256.0 L 431.0 1260.0 L 436.0 1260.0 L 437.0 1262.0 L 1186.0 1262.0 L 1187.0 1260.0 L 1200.0 1260.0 L 1201.0 1258.0 L 1208.0 1258.0 L 1209.0 1256.0 L 1212.0 1256.0 L 1213.0 1254.0 L 1216.0 1254.0 L 1217.0 1252.0 L 1228.0 1248.0 L 1244.0 1232.0 L 1244.0 1229.0 L 1242.0 1227.0 L 1239.0 1227.0 L 1236.0 1223.0 L 1233.0 1223.0 L 1232.0 1219.0 L 1228.0 1216.0 L 1228.0 1213.0 L 1223.0 1213.0 L 1217.0 1208.0 L 1216.0 1211.0 L 1214.0 1210.0 L 1215.0 1206.0 L 1213.0 1207.0 L 1212.0 1205.0 L 1213.0 1201.0 L 1216.0 1199.0 L 1212.0 1195.0 L 1210.0 1197.0 L 1205.0 1197.0 L 1198.0 1205.0 L 1189.0 1207.0 L 1188.0 1209.0 L 481.0 1209.0 L 480.0 1205.0 L 575.0 1110.0 L 1068.0 1110.0 L 1069.0 1108.0 L 1076.0 1108.0 L 1077.0 1106.0 L 1088.0 1102.0 L 1100.0 1090.0 L 1097.0 1089.0 L 1097.0 1092.0 L 1095.0 1093.0 L 1094.0 1090.0 L 1090.0 1088.0 L 1090.0 1083.0 L 1082.0 1078.0 L 1082.0 1075.0 L 1080.0 1074.0 L 1081.0 1072.0 L 1079.0 1073.0 L 1078.0 1071.0 L 1074.0 1070.0 L 1076.0 1068.0 L 1076.0 1063.0 L 1067.0 1063.0 L 1062.0 1058.0 L 1062.0 1055.0 L 1060.0 1053.0 L 1058.0 1057.0 L 631.0 1057.0 L 630.0 1055.0 L 723.0 962.0 L 770.0 962.0 L 771.0 960.0 L 932.0 960.0 L 933.0 958.0 L 944.0 954.0 L 948.0 950.0 L 948.0 947.0 L 936.0 936.0 L 936.0 933.0 L 932.0 929.0 L 925.0 927.0 L 908.0 909.0 L 891.0 909.0 L 890.0 907.0 L 781.0 907.0 L 780.0 905.0 L 1236.0 450.0 L 1236.0 447.0 L 1240.0 444.0 L 1242.0 435.0 L 1244.0 434.0 L 1244.0 413.0 L 1242.0 412.0 L 1242.0 407.0 L 1236.0 400.0 L 1236.0 397.0 L 1230.0 391.0 L 1227.0 391.0 L 1224.0 387.0 L 1219.0 387.0 L 1218.0 385.0 L 1213.0 385.0 L 1212.0 383.0 L 455.0 383.0 L 454.0 385.0 L 445.0 385.0 L 444.0 387.0 L 439.0 387.0 L 438.0 389.0 L 435.0 389.0 L 434.0 391.0 L 423.0 395.0 L 420.0 399.0 Z" fill="url(#zedLogoGradient)" fill-rule="evenodd"/>
</svg>
